<?xml version="1.0" standalone="no"?>
<!DOCTYPE svg PUBLIC "-//W3C//DTD SVG 20010904//EN"
 "http://www.w3.org/TR/2001/REC-SVG-20010904/DTD/svg10.dtd">
<svg version="1.0" xmlns="http://www.w3.org/2000/svg"
 width="980.000000pt" height="722.000000pt" viewBox="0 0 980.000000 722.000000"
 preserveAspectRatio="xMidYMid meet">
<metadata>
Created by potrace 1.15, written by Peter Selinger 2001-2017
</metadata>
<g transform="translate(0.000000,722.000000) scale(0.100000,-0.100000)"
fill="#000000" stroke="none">
<path d="M9280 7209 c-440 -14 -1261 -55 -1398 -69 -121 -13 -151 -27 -190
-85 -37 -56 -41 -105 -13 -151 27 -44 226 -253 417 -439 l165 -161 -1738
-1735 c-956 -954 -1753 -1745 -1770 -1757 l-33 -23 -342 338 c-189 186 -624
617 -968 958 -678 674 -840 827 -910 859 -35 16 -65 21 -136 21 -81 0 -94 -3
-130 -26 -96 -65 -1534 -1486 -1996 -1973 -182 -192 -210 -227 -223 -270 -20
-67 -19 -122 5 -197 38 -124 206 -302 313 -334 58 -17 185 -20 237 -5 52 14
305 255 1113 1060 l698 695 647 -652 c687 -692 1277 -1274 1439 -1419 119
-105 163 -128 258 -128 113 -1 145 20 410 271 127 120 892 877 1700 1683 809
806 1595 1588 1747 1738 l278 274 27 -20 c16 -11 143 -131 283 -267 140 -135
273 -258 296 -271 38 -22 46 -23 92 -13 58 12 96 38 118 81 44 85 64 328 109
1337 24 540 22 584 -38 646 -31 32 -34 33 -132 37 -55 3 -206 1 -335 -3z"/>
<path d="M8307 4562 l-557 -557 0 -1988 0 -1987 710 0 710 0 0 2393 0 2392
-153 153 -152 152 -558 -558z"/>
<path d="M6683 2938 l-703 -703 0 -1103 0 -1102 710 0 710 0 -1 1723 c-1 947
-4 1759 -7 1805 l-7 82 -702 -702z"/>
<path d="M2470 1632 l0 -1602 710 0 710 0 0 893 0 892 -710 710 -710 710 0
-1603z"/>
<path d="M1830 2784 c-344 -345 -801 -789 -913 -886 -50 -44 -116 -90 -153
-108 l-64 -30 2 -878 3 -877 650 3 c358 2 673 6 700 10 l50 7 3 1513 c1 831
-1 1512 -6 1512 -4 0 -126 -120 -272 -266z"/>
<path d="M5437 1694 c-282 -272 -380 -338 -566 -376 -200 -42 -385 0 -608 138
l-43 26 0 -726 0 -726 705 0 705 0 0 920 c0 506 -2 920 -5 920 -3 0 -88 -79
-188 -176z"/>
</g>
</svg>
